<?xml version="1.0" encoding="iso-8859-1"?>
<!-- Generator: Adobe Illustrator 16.0.0, SVG Export Plug-In . SVG Version: 6.00 Build 0)  -->
<!DOCTYPE svg PUBLIC "-//W3C//DTD SVG 1.1//EN" "http://www.w3.org/Graphics/SVG/1.1/DTD/svg11.dtd">
<svg version="1.1" id="Capa_1" xmlns="http://www.w3.org/2000/svg" xmlns:xlink="http://www.w3.org/1999/xlink" x="0px" y="0px"
	 width="46.158px" height="46.158px" viewBox="0 0 46.158 46.158" style="enable-background:new 0 0 46.158 46.158;"
	 xml:space="preserve">
<g>
	<g>
		<path d="M23.081,0C10.332,0,0,10.332,0,23.081c0,12.743,10.332,23.077,23.081,23.077c12.743,0,23.077-10.334,23.077-23.077
			C46.158,10.332,35.824,0,23.081,0z M23.081,42.479c-10.697,0-19.401-8.701-19.401-19.396c0-10.697,8.704-19.401,19.401-19.401
			c10.696,0,19.397,8.704,19.397,19.401C42.479,33.777,33.777,42.479,23.081,42.479z"/>
		<path d="M23.081,6.69c-9.039,0-16.392,7.353-16.392,16.392c0,9.036,7.353,16.387,16.392,16.387
			c9.036,0,16.388-7.351,16.388-16.387C39.469,14.042,32.117,6.69,23.081,6.69z M26.141,33.35c0,1.582-1.439,2.865-3.021,2.865
			c-1.585,0-3.022-1.283-3.022-2.865V23.318c0-1.583,1.438-2.866,3.022-2.866c1.582,0,3.021,1.283,3.021,2.866V33.35z
			 M23.079,18.135c-2.077,0-3.763-1.685-3.763-3.763c0-2.076,1.686-3.762,3.763-3.762c2.078,0,3.763,1.686,3.763,3.762
			C26.842,16.451,25.157,18.135,23.079,18.135z"/>
	</g>
</g>
<g>
</g>
<g>
</g>
<g>
</g>
<g>
</g>
<g>
</g>
<g>
</g>
<g>
</g>
<g>
</g>
<g>
</g>
<g>
</g>
<g>
</g>
<g>
</g>
<g>
</g>
<g>
</g>
<g>
</g>
</svg>
