<?xml version="1.0" encoding="UTF-8" standalone="no"?>
<svg
   xmlns:dc="http://purl.org/dc/elements/1.1/"
   xmlns:cc="http://creativecommons.org/ns#"
   xmlns:rdf="http://www.w3.org/1999/02/22-rdf-syntax-ns#"
   xmlns:svg="http://www.w3.org/2000/svg"
   xmlns="http://www.w3.org/2000/svg"
   xmlns:sodipodi="http://sodipodi.sourceforge.net/DTD/sodipodi-0.dtd"
   xmlns:inkscape="http://www.inkscape.org/namespaces/inkscape"
   enable-background="new 0 0 256 256"
   height="256px"
   id="Layer_1"
   version="1.1"
   viewBox="0 0 256 256"
   width="256px"
   xml:space="preserve"
   inkscape:version="0.48.4 r9939"
   sodipodi:docname="icone_asp.svg"><metadata
     id="metadata23"><rdf:RDF><cc:Work
         rdf:about=""><dc:format>image/svg+xml</dc:format><dc:type
           rdf:resource="http://purl.org/dc/dcmitype/StillImage" /><dc:title></dc:title></cc:Work></rdf:RDF></metadata><defs
     id="defs21"><marker
       inkscape:stockid="Arrow1Send"
       orient="auto"
       refY="0.0"
       refX="0.0"
       id="Arrow1Send"
       style="overflow:visible;"><path
         id="path3933"
         d="M 0.0,0.0 L 5.0,-5.0 L -12.5,0.0 L 5.0,5.0 L 0.0,0.0 z "
         style="fill-rule:evenodd;stroke:#000000;stroke-width:1.0pt;"
         transform="scale(0.2) rotate(180) translate(6,0)" /></marker><marker
       inkscape:stockid="Arrow1Lend"
       orient="auto"
       refY="0.0"
       refX="0.0"
       id="Arrow1Lend"
       style="overflow:visible;"><path
         id="path3921"
         d="M 0.0,0.0 L 5.0,-5.0 L -12.5,0.0 L 5.0,5.0 L 0.0,0.0 z "
         style="fill-rule:evenodd;stroke:#000000;stroke-width:1.0pt;"
         transform="scale(0.8) rotate(180) translate(12.5,0)" /></marker></defs><sodipodi:namedview
     pagecolor="#ffffff"
     bordercolor="#666666"
     borderopacity="1"
     objecttolerance="10"
     gridtolerance="10"
     guidetolerance="10"
     inkscape:pageopacity="0"
     inkscape:pageshadow="2"
     inkscape:window-width="1366"
     inkscape:window-height="719"
     id="namedview19"
     showgrid="false"
     inkscape:object-paths="true"
     inkscape:snap-nodes="true"
     inkscape:zoom="0.921875"
     inkscape:cx="137.87053"
     inkscape:cy="-8.8116709"
     inkscape:window-x="0"
     inkscape:window-y="25"
     inkscape:window-maximized="1"
     inkscape:current-layer="Layer_1" /><g
     id="g3045"
     transform="translate(192.72881,434.13559)" /><g
     id="g3053"
     transform="translate(194.8983,434.13559)" /><circle
     d="m 542,150 c 0,66.27417 -53.72583,120 -120,120 -66.27417,0 -120,-53.72583 -120,-120 0,-66.27417 53.72583,-120 120,-120 66.27417,0 120,53.72583 120,120 z"
     style="fill:#ffffff;stroke:none"
     sodipodi:ry="120"
     sodipodi:rx="120"
     sodipodi:cy="150"
     sodipodi:cx="422"
     cx="422"
     cy="150"
     r="120"
     id="circle3055"
     transform="translate(194.8983,434.13559)" /><path
     style="fill:#008080;stroke:#000000;stroke-width:6.25150681;stroke-linecap:butt;stroke-linejoin:miter;stroke-miterlimit:4;stroke-opacity:1;stroke-dasharray:none"
     d="m 93.265832,8.9658381 c 8.978618,-1.39522 16.654658,6.1256699 26.356388,6.8384199 9.70173,0.71277 17.93097,2.01029 26.99921,2.41357 5.55725,0.24713 11.29785,0.81744 16.7138,0 9.59565,-1.44829 16.487,-8.3417199 26.35638,-8.4474699 15.62249,-0.16739 36.10482,3.5289799 42.42733,12.4700699 5.89674,8.33897 -3.2569,19.28632 -12.85677,26.14691 -13.5167,9.65979 -35.92331,18.94812 -55.92694,16.09041 -14.09603,-2.01375 -9.97146,-8.28598 -24.42786,-8.44746 -7.73957,-0.0865 -24.98095,3.38998 -32.14191,5.22939 -9.137901,2.3472 -18.837976,-3.23131 -27.642062,-6.03391 -4.474976,-1.42451 -10.285418,-7.64294 -10.285418,-7.64294 0,0 -7.851961,-12.00909 -6.42839,-18.90623 1.497614,-7.25577 19.509386,-17.94753 30.856242,-19.7107599 z"
     id="path3854"
     inkscape:connector-curvature="0"
     sodipodi:nodetypes="szasasssssscss"
     inkscape:export-filename="/home/walter/.qgis2/python/plugins/ARPAP_SpatialReport/icons/icon2.png"
     inkscape:export-xdpi="5.2363238"
     inkscape:export-ydpi="5.2363238" /><path
     style="fill:#b7c4c8;stroke:#000000;stroke-width:5.60423136;stroke-linecap:butt;stroke-linejoin:miter;stroke-miterlimit:4;stroke-opacity:1;stroke-dasharray:16.81269404, 16.81269404;stroke-dashoffset:0"
     d="m 149.44115,56.671498 c 8.46339,1.81153 7.26705,10.7996 14.26353,14.65265 6.99647,3.85306 12.26052,7.71292 19.05459,11.08989 4.16358,2.0695 8.1597,4.47621 13.24148,5.58956 9.00359,1.97257 21.13377,-1.60806 29.0551,1.60225 12.5389,5.08168 25.18917,15.087342 21.54622,24.835272 -3.39762,9.09149 -21.24291,15.3766 -35.48713,18.0234 -20.05599,3.72672 -46.79557,4.1633 -59.87815,-4.96626 -9.21893,-6.43335 0.11816,-10.40894 -11.17865,-15.38143 -6.04801,-2.66215 -23.0715,-5.46012 -30.52468,-6.28455 -9.51078,-1.05202 -11.797542,-9.058682 -16.060611,-14.395752 -2.166838,-2.71275 -0.752817,-9.96494 -0.752817,-9.96494 0,0 5.400015,-12.87873 13.201958,-18.29112 8.20758,-5.69381 32.82341,-8.79831 43.51916,-6.50897 z"
     id="path3854-5"
     inkscape:connector-curvature="0"
     sodipodi:nodetypes="szasasssssscss"
     inkscape:export-filename="/home/walter/.qgis2/python/plugins/ARPAP_SpatialReport/icons/icon2.png"
     inkscape:export-xdpi="5.2363238"
     inkscape:export-ydpi="5.2363238" /><g
     id="g3041"
     transform="matrix(0.45134585,0,0,0.46241038,2.8806105,107.8838)"
     style="fill:#0066ff;stroke:none"
     inkscape:export-filename="/home/walter/.qgis2/python/plugins/ARPAP_SpatialReport/icons/icon2.png"
     inkscape:export-xdpi="5.2363238"
     inkscape:export-ydpi="5.2363238"><path
       style="fill:#0066ff;stroke:none"
       inkscape:connector-curvature="0"
       d="M 150,150 15.055054,153.85507 A 135,135 0 0 1 150,15 l 0,135 a 0,0 0 0 0 0,0"
       id="path3043" /></g><path
     inkscape:connector-curvature="0"
     d="m 79.846205,186.55887 56.060185,-31.93342 a 65.464171,61.838845 0 0 1 -74.503573,91.26736 l 18.443388,-59.33394 a 0,0 0 0 0 0,0 m -4.734134,0 -18.443388,59.33394 A 65.464171,61.838845 0 0 1 9.6745965,188.32475 l 65.4374745,-1.76588 a 0,0 0 0 0 0,0"
     style="fill:#225500;stroke:none"
     id="path3051"
     inkscape:export-filename="/home/walter/.qgis2/python/plugins/ARPAP_SpatialReport/icons/icon2.png"
     inkscape:export-xdpi="5.2363238"
     inkscape:export-ydpi="5.2363238" /><g
     id="g3037"
     transform="matrix(0.53733764,0,0,0.48169448,-1.5361395,105.18248)"
     style="fill:#aa0000;stroke:none"
     inkscape:export-filename="/home/walter/.qgis2/python/plugins/ARPAP_SpatialReport/icons/icon2.png"
     inkscape:export-xdpi="5.2363238"
     inkscape:export-ydpi="5.2363238"><path
       style="fill:#aa0000;stroke:none"
       inkscape:connector-curvature="0"
       d="M 150,150 150,15 A 135,135 0 0 1 265.60712,80.286343 L 150,150 a 0,0 0 0 0 0,0"
       id="path3039" /></g></svg>