<?xml version="1.0" encoding="iso-8859-1"?>
<!-- Generator: Adobe Illustrator 18.1.1, SVG Export Plug-In . SVG Version: 6.00 Build 0)  -->
<svg version="1.1" id="Capa_1" xmlns="http://www.w3.org/2000/svg" xmlns:xlink="http://www.w3.org/1999/xlink" x="0px" y="0px"
	 viewBox="0 0 26.648 26.648" style="enable-background:new 0 0 26.648 26.648;" xml:space="preserve">
<g>
	<path style="fill:#030104;" d="M14.426,0.001v11.867h12.222V0.001H14.426z M25.312,7.329h-3.314v3.381h-2.883V7.329h-3.357V4.444
		h3.357V1.159h2.883v3.285h3.314V7.329z"/>
	<path style="fill:#030104;" d="M0,11.868h12.224V0.001H0V11.868z M2.709,4.536h7.364v2.797H2.709V4.536z"/>
	<path style="fill:#030104;" d="M14.426,26.647h12.222V14.069H14.426V26.647z M16.854,16.763h7.364v2.795h-7.364V16.763z
		 M16.854,21.568h7.364v2.795h-7.364V21.568z"/>
	<path style="fill:#030104;" d="M0,26.647h12.224V14.069H0V26.647z M1.785,17.635l1.602-1.604c0,0,2.559,2.725,2.723,2.725
		c0.168,0,2.726-2.725,2.726-2.725l1.604,1.604c0,0-2.725,2.538-2.725,2.728c0,0.184,2.725,2.723,2.725,2.723l-1.604,1.601
		c0,0-2.536-2.724-2.726-2.724c-0.185,0-2.723,2.724-2.723,2.724l-1.602-1.601c0,0,2.723-2.5,2.723-2.723
		C4.508,20.135,1.785,17.635,1.785,17.635z"/>
</g>
<g>
</g>
<g>
</g>
<g>
</g>
<g>
</g>
<g>
</g>
<g>
</g>
<g>
</g>
<g>
</g>
<g>
</g>
<g>
</g>
<g>
</g>
<g>
</g>
<g>
</g>
<g>
</g>
<g>
</g>
</svg>
