<?xml version="1.0" encoding="iso-8859-1"?>
<!-- Generator: Adobe Illustrator 18.1.1, SVG Export Plug-In . SVG Version: 6.00 Build 0)  -->
<svg version="1.1" id="Capa_1" xmlns="http://www.w3.org/2000/svg" xmlns:xlink="http://www.w3.org/1999/xlink" x="0px" y="0px"
	 viewBox="0 0 29.999 29.999" style="enable-background:new 0 0 29.999 29.999;" xml:space="preserve">
<g>
	<g>
		<polygon style="fill:#010002;" points="12,12 16,12 16,6 20,6 14,0 8,6 12,6 		"/>
		<path style="fill:#010002;" d="M24.337,19.998c-0.063-0.212-0.146-0.413-0.245-0.606l1.188-1.187l-1.416-1.415l-1.165,1.166
			c-0.22-0.123-0.452-0.221-0.697-0.294v-1.663h-2v1.662c-0.229,0.068-0.446,0.158-0.651,0.27l-1.142-1.14l-1.415,1.415l1.141,1.141
			c-0.115,0.207-0.205,0.423-0.273,0.652H16v2h1.662c0.072,0.246,0.172,0.479,0.295,0.698l-1.165,1.163l1.413,1.416l1.188-1.188
			c0.192,0.102,0.395,0.182,0.605,0.245v1.666H22v-1.665c0.229-0.067,0.445-0.158,0.65-0.271l1.213,1.213l1.414-1.416l-1.213-1.211
			c0.111-0.205,0.201-0.422,0.271-0.65H26v-2.001C26,19.998,24.337,19.998,24.337,19.998z M20.999,22.498
			c-0.829-0.002-1.498-0.671-1.501-1.5c0.003-0.829,0.672-1.498,1.501-1.501c0.829,0.003,1.498,0.672,1.5,1.501
			C22.497,21.827,21.828,22.496,20.999,22.498z"/>
		<path style="fill:#010002;" d="M21,12c-3.121,0-5.869,1.588-7.483,4H0v8h12.523c1.237,3.493,4.559,5.999,8.477,5.999
			c4.971,0,8.999-4.027,8.999-8.999S25.971,12,21,12z M6,22H2v-2h4V22z M21,27.999c-3.865-0.008-6.994-3.135-7-6.999
			c0.006-3.865,3.135-6.994,7-7c3.863,0.006,6.991,3.135,6.999,7C27.991,24.864,24.863,27.991,21,27.999z"/>
	</g>
</g>
<g>
</g>
<g>
</g>
<g>
</g>
<g>
</g>
<g>
</g>
<g>
</g>
<g>
</g>
<g>
</g>
<g>
</g>
<g>
</g>
<g>
</g>
<g>
</g>
<g>
</g>
<g>
</g>
<g>
</g>
</svg>
